PathFileType	4	(X/Y/Z)	c:/Users/goper/Files/vsCode/490R/osim_files/C12/C12_Slow_06.trc
DataRate	CameraRate	NumFrames	NumMarkers	Units                	OrigDataRate	OrigDataStartFrame	OrigNumFrames
120.00	120.00	9	36	mm	120.0	980	1306
                Frame#	Time	LPSIS			LASIS			LTH1			LTH2			LTH3			LTH4			LLFE			LMFE			LSH1			LSH2			LSH3			LSH4			LLMAL			LMMAL			LCAL			LMTP5			LTOE			LMTP1			RPSIS			RASIS			RTH1			RTH2			RTH3			RTH4			RLFE			RMFE			RSH1			RSH2			RSH3			RSH4			RLMAL			RMMAL			RCAL			RMTP1			RTOE			RMTP5		
		X1	Y1	Z1	X2	Y2	Z2	X3	Y3	Z3	X4	Y4	Z4	X5	Y5	Z5	X6	Y6	Z6	X7	Y7	Z7	X8	Y8	Z8	X9	Y9	Z9	X10	Y10	Z10	X11	Y11	Z11	X12	Y12	Z12	X13	Y13	Z13	X14	Y14	Z14	X15	Y15	Z15	X16	Y16	Z16	X17	Y17	Z17	X18	Y18	Z18	X19	Y19	Z19	X20	Y20	Z20	X21	Y21	Z21	X22	Y22	Z22	X23	Y23	Z23	X24	Y24	Z24	X25	Y25	Z25	X26	Y26	Z26	X27	Y27	Z27	X28	Y28	Z28	X29	Y29	Z29	X30	Y30	Z30	X31	Y31	Z31	X32	Y32	Z32	X33	Y33	Z33	X34	Y34	Z34	X35	Y35	Z35	X36	Y36	Z36

980	8.15833	-2738.41089	1034.79187	345.77774	-2908.05615	986.62524	436.41901	-2731.34033	736.11249	465.47620	-2722.74683	692.34344	460.89526	-2789.84717	721.75232	472.84131	-2774.93530	679.41852	467.25125	-2699.33374	512.45685	427.56076	-2710.06274	502.27420	304.73376	-2599.09692	458.93088	442.66196	-2574.11401	418.55365	448.92401	-2648.13770	422.76816	437.61142	-2615.97998	387.73837	441.38168	-2424.25073	164.94931	401.22662	-2433.88477	163.44008	323.71561	-2353.14038	168.16591	366.02161	-2508.32715	45.65475	423.02338	-2559.03906	68.88896	350.31207	-2526.85693	42.86323	310.42419	-2738.89795	1026.08643	231.52812	-2930.54834	997.77045	178.62517	-2942.74048	722.99109	120.02743	-2963.73950	683.23108	134.00647	-2997.54077	750.43396	134.73627	-3013.44922	706.76874	140.88803	-3043.24927	529.80933	175.34962	-3023.55127	525.12195	308.22040	-3016.11621	418.91238	154.14059	-3033.21729	378.86533	147.65970	-3077.09814	433.75549	164.34201	-3083.63623	392.32785	155.12283	-3136.22729	106.92157	186.67996	-3148.39575	122.54295	270.88925	-3074.06079	58.82543	225.73355	-3283.43921	84.23685	270.70395	-3319.15063	118.01782	241.72360	-3293.72876	81.00085	167.00777
981	8.16667	-2751.39233	1034.30859	344.72238	-2921.40527	986.29675	435.21841	-2745.65869	735.28528	464.28751	-2737.17969	691.54370	459.89417	-2803.69214	720.92212	470.76740	-2789.33276	678.63049	466.37659	-2714.70435	511.42059	428.30084	-2724.49536	501.12665	304.82700	-2612.48511	460.20346	442.98471	-2586.41943	420.40179	449.29578	-2660.28906	422.69852	438.35110	-2627.34668	388.46957	442.01102	-2430.73438	170.25346	401.84195	-2441.17554	168.06654	324.58035	-2360.82397	176.39014	365.78986	-2509.19312	46.05453	423.18286	-2559.36011	68.79221	350.09653	-2528.01147	42.96456	310.31375	-2751.43311	1026.55176	230.23187	-2942.80029	998.35272	177.68887	-2952.99487	723.78461	124.17546	-2976.12646	684.39532	133.74002	-3008.97803	750.80225	133.75728	-3024.65137	707.03619	140.04163	-3057.43799	532.30762	175.83360	-3035.25049	528.19800	307.38705	-3029.18481	421.88748	153.67888	-3043.87964	381.51794	146.96884	-3090.55591	435.14474	163.95865	-3095.45728	393.44125	155.20932	-3139.42163	106.68314	186.87842	-3151.41528	121.11660	270.93814	-3074.53760	60.61718	225.72420	-3286.72681	78.87924	271.00809	-3322.83154	111.42345	241.48727	-3295.86304	75.60217	166.93396
982	8.17500	-2764.82373	1033.98254	343.99579	-2934.72485	986.29926	433.92239	-2760.52148	734.55542	463.39938	-2752.15088	690.83044	459.13913	-2818.70312	720.47870	470.20663	-2804.23950	677.99091	465.75128	-2730.42725	510.48541	429.23672	-2739.50537	500.15353	305.20563	-2626.39355	461.67096	443.59354	-2599.57935	422.45251	449.87988	-2673.29785	423.14008	439.00485	-2639.49048	389.85306	442.61099	-2437.82666	175.85176	402.54147	-2449.58350	172.69719	325.63004	-2369.89209	185.12326	365.19080	-2510.28174	46.59752	423.32034	-2559.54980	68.56699	349.80737	-2528.89453	43.02126	310.15955	-2763.81763	1027.28247	229.12643	-2955.00244	999.45557	176.74051	-2963.71533	724.49109	121.76568	-2987.35547	685.28937	133.67908	-3020.41650	751.68433	132.54602	-3036.01001	707.94586	139.04259	-3072.43042	534.95459	176.85811	-3048.10815	531.34827	307.19308	-3040.91626	424.80582	152.96133	-3054.96045	383.96500	146.32585	-3103.06763	436.17593	164.07144	-3106.93164	394.37122	155.26122	-3142.24463	106.80213	187.10158	-3154.55371	120.34858	270.91733	-3076.04614	62.18818	225.81760	-3288.20264	74.74857	270.95468	-3325.73901	105.81465	241.42487	-3297.83301	70.94945	166.97261
983	8.18333	-2777.13623	1034.00903	343.02649	-2947.82617	986.71423	432.40424	-2775.49609	734.03998	462.44916	-2767.43213	690.16187	458.49713	-2833.69165	720.16010	469.40146	-2819.59399	677.61279	465.39783	-2744.15576	510.55585	431.15881	-2755.21460	499.35886	306.07977	-2641.35962	463.16119	444.22202	-2613.22583	424.81314	450.45425	-2687.15967	423.81387	440.39182	-2652.47461	391.22180	443.79517	-2446.48364	181.58221	403.28796	-2459.28564	177.49866	326.75986	-2380.33154	194.17206	364.32471	-2511.13721	47.17478	423.38632	-2559.33472	68.14051	350.44180	-2530.01172	43.33593	309.91302	-2776.23633	1028.39648	228.26285	-2967.16968	1000.96808	175.61143	-2975.35205	725.78314	121.24479	-2999.17896	686.64490	133.39627	-3032.15332	753.15674	131.39493	-3047.82715	709.50354	138.20781	-3086.99023	537.41522	177.63214	-3062.96118	535.09973	307.93127	-3052.78735	427.40845	152.06133	-3065.84033	386.18994	145.61867	-3115.15674	437.15256	164.18840	-3117.97949	395.29080	155.35773	-3145.11133	106.98280	187.22055	-3157.72900	119.97687	271.17532	-3076.94434	63.52581	225.82834	-3290.20850	70.76280	271.26370	-3327.96313	101.02666	241.75151	-3299.38208	66.87224	167.14073
984	8.19167	-2789.87378	1034.43677	342.24265	-2961.08765	987.48077	430.67929	-2791.09619	733.51874	461.92935	-2783.29492	689.63916	458.27393	0.00000	0.00000	0.00000	-2835.46240	677.51331	465.21414	-2761.70215	509.76950	432.87964	-2772.00171	498.48248	307.69653	-2656.69116	465.21915	445.06750	-2627.88501	427.54099	451.14322	-2701.90625	424.66623	442.05975	-2666.32959	393.22452	445.42612	-2455.97974	187.21822	403.90961	-2470.09180	182.51587	327.94046	-2392.00146	203.62872	363.41464	-2512.30908	48.28360	423.14996	-2560.16943	68.51978	350.34598	-2531.42578	43.98693	309.57556	-2788.28467	1029.57361	227.41982	-2978.97388	1002.79932	174.31404	-2987.25757	727.08917	120.23783	0.00000	0.00000	0.00000	-3044.00879	754.92450	130.44388	-3060.06079	711.26068	136.97653	-3100.50537	538.92346	177.68103	-3077.28955	538.02454	308.81204	-3064.09033	429.56723	151.09891	-3076.43408	388.09903	144.84166	-3126.56274	437.86319	164.17834	-3128.50854	395.90039	155.32692	-3147.06714	106.81343	187.37701	-3159.68579	119.32658	271.54453	-3077.98999	64.58515	225.70193	-3291.41772	67.54643	271.63770	-3329.80908	96.79544	242.16667	-3300.71851	63.52584	167.37050
985	8.20000	-2803.12109	1034.99829	341.56036	-2974.17578	988.53357	428.67487	-2806.65674	732.92499	461.32062	-2799.16724	689.21301	458.11432	-2866.16675	720.98834	470.90668	-2851.55322	677.42719	465.36688	-2781.41138	508.73230	435.21643	-2789.62012	497.25385	309.84174	-2672.53638	467.26794	445.58981	-2643.02148	430.22156	451.88718	-2716.40039	425.91006	444.28311	-2680.73267	395.00497	447.41983	-2466.03076	193.33644	403.41211	-2481.77173	187.64482	328.64398	-2404.77539	213.43280	362.90628	-2513.91479	50.02470	422.78763	-2561.69702	69.09307	350.43930	-2533.52734	45.34761	309.30756	-2800.72437	1030.65027	226.91768	-2990.95361	1004.89886	172.90024	-3000.69702	728.45129	117.60657	0.00000	0.00000	0.00000	-3055.89673	756.77063	129.54233	-3072.42114	713.14252	136.09081	-3112.71216	539.64746	177.09065	-3091.47070	540.32471	309.12744	-3074.99072	431.18857	150.11533	-3086.51636	389.45856	144.00111	-3137.40503	438.27432	163.97510	-3138.45825	396.23016	155.15004	-3148.82617	106.69963	187.48235	-3161.33203	118.67273	271.73456	-3078.75684	65.34759	225.62923	-3291.84204	64.98702	271.86334	-3331.16895	93.21079	242.41423	-3301.76221	60.73176	167.36029
986	8.20833	-2815.17114	1035.68164	340.81042	-2986.91016	989.71191	426.52252	-2822.62671	732.39520	461.14291	-2815.53979	688.56561	458.41714	-2881.22241	720.41217	468.92252	-2867.95044	677.34570	465.75497	-2799.87769	507.84518	437.65460	-2808.46265	495.55963	312.35641	-2689.78491	469.20218	446.55469	-2658.86670	433.19971	452.46548	-2732.80957	426.48944	446.70935	-2695.66187	396.82156	449.76816	-2477.52466	199.20772	403.88699	-2494.04102	192.97522	329.14087	-2418.54858	223.84790	362.60141	-2515.79370	52.67464	422.38385	-2563.97168	69.56828	350.52731	-2536.11230	47.52157	309.14157	-2812.63330	1031.96802	226.34857	-3002.65967	1007.04706	171.22018	-3012.97925	730.31378	119.18767	-3037.21558	693.06921	128.59637	-3068.01172	758.32959	128.28085	-3084.92944	714.85919	134.88864	-3124.05542	539.99438	176.10719	-3104.90063	541.46973	309.48206	-3085.16235	432.35779	148.93962	-3095.89404	390.39886	143.03264	-3147.41309	438.15274	163.67343	-3147.86060	396.16196	154.85301	-3150.35864	106.69513	187.48097	-3162.23071	118.12553	271.25861	-3079.25781	66.00565	225.52336	-3293.35376	62.90433	272.07123	-3332.12646	90.46224	242.32123	-3303.52393	58.77970	168.28667
987	8.21667	-2827.57104	1036.72717	340.01520	-2999.32373	990.93561	424.34192	-2838.55273	731.68567	461.16727	-2832.23682	687.76532	458.95590	-2897.08032	720.33112	468.87775	-2884.56006	677.21619	466.25418	-2818.30713	506.98840	439.81418	-2828.42017	493.35114	315.10522	-2707.35547	470.87897	447.20975	-2675.33325	435.88000	453.11084	-2749.21387	427.16278	449.36301	-2711.23120	398.61456	452.20996	-2489.69727	205.59222	404.46173	-2506.43140	198.63475	329.22562	-2433.03687	234.54303	362.67715	-2518.31689	56.48180	422.09445	-2567.85449	70.37803	351.28784	-2539.96191	51.22354	309.02194	-2824.64893	1033.42053	225.91985	-3014.61499	1009.39355	169.54428	-3023.79785	730.67059	115.61601	0.00000	0.00000	0.00000	-3079.96069	759.68787	126.88225	-3096.97217	716.23889	133.33548	-3134.37207	540.05615	174.90282	-3116.41187	541.78119	308.52734	-3094.48389	433.15091	147.81979	-3104.45288	391.03448	142.06868	-3156.80933	437.71457	163.12833	-3156.40356	395.72763	154.37712	-3151.54150	106.70969	187.53708	-3163.37402	117.85721	271.27701	-3079.87012	66.57373	225.51385	-3293.59717	61.71876	272.16620	-3333.00854	88.48677	242.04842	-3304.23047	57.15155	167.99971
988	8.22500	-2839.58057	1038.01270	339.31497	-3011.36230	992.24829	422.23709	-2854.56860	730.80823	461.49750	-2849.02271	686.96576	459.64835	-2914.25073	720.99579	471.27264	-2901.31860	677.11407	467.05142	-2837.20190	505.98865	441.72858	-2849.08032	490.39871	317.75647	-2725.32935	472.62836	447.97342	-2692.41553	438.44678	453.75766	-2765.75439	427.89334	451.87845	-2726.74536	399.60641	454.34409	-2501.96777	212.50732	404.76694	-2521.10107	204.81363	331.04599	-2449.19556	245.86157	363.02182	-2521.22876	61.52871	421.82904	-2574.03345	71.97325	351.11902	-2544.49194	55.94556	309.18469	-2836.74414	1034.97009	225.65311	-3026.15723	1011.44836	167.73114	-3035.42871	731.65143	113.96820	0.00000	0.00000	0.00000	-3091.70459	760.78180	125.44176	-3108.73706	717.33704	131.83626	-3143.98389	539.78949	173.63205	-3126.29614	541.45673	306.80621	-3103.11182	433.84280	146.42894	-3112.27368	391.46442	140.92421	-3165.24438	437.09705	162.29929	-3164.22144	395.13138	153.69138	-3152.24512	106.76887	187.63045	-3163.79102	117.60401	271.17920	-3080.15088	66.98693	225.51553	-3294.65112	60.91963	272.26517	-3333.56714	87.16620	242.10971	-3304.64941	55.95562	167.68080
